<svg width="22" height="21" fill="none" xmlns="http://www.w3.org/2000/svg"><path fill-rule="evenodd" clip-rule="evenodd" d="M10.963 0c2.852 0 3.21.012 4.33.063 1.117.051 1.88.229 2.548.488.69.269 1.276.628 1.86 1.211.584.584.943 1.17 1.211 1.86.26.668.437 1.431.488 2.549.051 1.12.063 1.477.063 4.329 0 2.852-.012 3.21-.063 4.33-.05 1.117-.228 1.88-.488 2.548a5.149 5.149 0 01-1.211 1.86 5.149 5.149 0 01-1.86 1.21c-.668.26-1.431.438-2.549.489-1.12.05-1.477.063-4.329.063-2.852 0-3.21-.012-4.33-.063-1.117-.051-1.88-.229-2.548-.488a5.149 5.149 0 01-1.86-1.211 5.147 5.147 0 01-1.21-1.86c-.26-.668-.438-1.431-.489-2.549C.475 13.71.463 13.352.463 10.5c0-2.852.012-3.21.063-4.33.051-1.117.229-1.88.488-2.548a5.146 5.146 0 011.211-1.86 5.147 5.147 0 011.86-1.21C4.753.291 5.516.113 6.634.062 7.754.013 8.11 0 10.964 0zm0 1.892c-2.804 0-3.136.01-4.243.061-1.024.047-1.58.218-1.95.362-.49.19-.84.418-1.207.785a3.253 3.253 0 00-.785 1.207c-.144.37-.315.926-.362 1.95-.05 1.107-.061 1.44-.061 4.243 0 2.804.01 3.136.061 4.243.047 1.024.218 1.58.362 1.95.19.49.418.84.785 1.207.367.367.717.595 1.207.785.37.144.926.315 1.95.362 1.107.05 1.44.061 4.243.061 2.804 0 3.136-.01 4.243-.061 1.024-.047 1.58-.218 1.95-.362.49-.19.84-.418 1.207-.785.368-.367.595-.717.786-1.207.143-.37.314-.926.361-1.95.05-1.107.061-1.44.061-4.243 0-2.804-.01-3.136-.06-4.243-.047-1.024-.219-1.58-.362-1.95-.19-.49-.418-.84-.786-1.207a3.253 3.253 0 00-1.207-.785c-.37-.144-.926-.315-1.95-.362-1.107-.05-1.44-.061-4.243-.061zm0 12.108a3.5 3.5 0 100-7 3.5 3.5 0 000 7zm0-8.892a5.392 5.392 0 110 10.784 5.392 5.392 0 010-10.784zm6.865-.213a1.26 1.26 0 11-2.52 0 1.26 1.26 0 012.52 0z" fill="#000"/></svg>